<svg width="697" height="716" viewBox="0 0 697 716" fill="none" xmlns="http://www.w3.org/2000/svg">
<path d="M257.337 1.32541C226.827 3.29382 178.252 4.79237 152.137 23.3254C150.137 24.7921 143.604 36.7921 134.537 55.4587C100.472 125.293 74.0921 198.026 43.8707 269.459C38.2019 284.764 54.4917 263.055 57.204 259.859C129.959 174.339 222.356 99.8716 277.871 1.45874C279.195 -0.659503 259.05 1.22613 257.337 1.32541Z" fill="#7D1919"/>
<path d="M296.804 0.925391C296.271 1.32539 292.404 8.92539 288.137 17.7254C263.122 68.9056 -56.6089 366.987 8.80398 444.925C30.0405 469.843 31.7291 417.313 41.4707 398.125C89.4031 302.708 196.454 214.051 305.337 207.325C315.458 206.783 313.786 204.032 312.804 195.192C308.137 147.151 357.299 117.117 380.537 82.2587C393.522 61.6358 306.583 -8.8538 296.804 0.925391Z" fill="#7D1919"/>
<path d="M352.004 0.925442C352.004 1.45878 355.071 4.92544 358.804 8.52544C369.471 18.9254 392.271 48.1254 400.937 62.3921C401.071 62.6588 404.537 60.6588 408.537 57.9921C425.871 46.5254 437.871 41.0588 460.004 34.5254C473.737 30.5254 476.671 27.7254 469.737 25.0588C457.887 20.5081 352.004 -1.6832 352.004 0.925442Z" fill="#7D1919"/>
<path d="M509.071 59.8587C489.737 62.1254 470.537 70.7921 460.004 81.9921C451.204 91.3254 451.471 93.3254 462.404 95.4587C530.526 109.148 614.014 176.081 646.537 236.792C680.994 303.055 583.324 51.8313 509.071 59.8587Z" fill="#7D1919"/>
<path d="M454.671 119.859C432.537 122.125 410.271 138.925 403.737 158.525C394.057 187.566 440.814 190.243 458.404 200.125C548.117 249.772 568.251 397.643 552.671 486.525C551.548 493.102 546.311 507.057 558.404 498.659C572.004 489.192 616.271 460.659 650.004 439.592C698.004 409.725 696.004 411.192 696.004 407.192C696.004 359.004 664.775 301.611 641.737 261.859C608.233 204.451 530.857 112.688 454.671 119.859Z" fill="#7D1919"/>
<path d="M391.337 231.859C361.275 240.57 330.972 236.674 300.671 243.859C254.004 254.792 203.337 285.059 169.471 322.259C118.611 377.963 80.3697 462.008 103.737 538.525C105.737 545.192 108.137 548.125 131.337 571.859C145.337 586.125 172.271 613.992 191.337 633.859C254.004 699.192 271.471 716.259 273.604 715.059C285.878 707.387 296.496 695.249 307.204 685.459C291.638 670.908 276.038 656.33 261.871 640.392C215.263 587.106 172.892 510.484 187.871 436.525C196.271 395.592 220.671 354.125 255.604 321.192C274.804 303.325 306.804 282.659 315.871 282.525C316.937 282.525 311.471 288.925 303.871 296.792C279.871 321.459 265.337 341.725 253.337 366.792C234.404 406.525 231.204 448.792 243.337 497.192C258.753 559.033 296.752 608.332 336.937 654.259C338.29 655.881 536.132 512.713 536.404 512.525C544.543 506.606 540.973 495.031 539.471 486.392C533.52 452.176 528.986 417.947 519.204 384.525C504.703 334.796 465.499 211.501 391.337 231.859Z" fill="#7D1919"/>
</svg>
